<svg width="512" height="431" viewBox="0 0 512 431" fill="none" xmlns="http://www.w3.org/2000/svg">
<path d="M80 199C97.0584 160.469 105.196 121.274 139 92.3C146.327 86.02 154.877 80.889 164 77.695C170.079 75.567 177.679 75.398 182.895 71.351C188.51 66.995 189.407 58.4411 191.151 52C194.925 38.067 210.726 5.83581 187 2.30091C134.475 -5.52459 85.7816 35.0985 57.7207 75C8.75336 144.63 -15.4142 244.563 7.15125 328C14.6979 355.904 28.2344 381.392 50 400.826C83.2085 430.477 136.13 438.103 177 421.547C254.333 390.22 276.188 285.27 216.961 226.039C180.493 189.569 127.089 183.07 80 199ZM342 199C349.807 161.278 370.116 117.326 400 92.325C407.963 85.663 417.179 80.443 427 77.079C434.42 74.537 443.264 74.666 447.583 66.985C454.462 54.7469 457.053 36.6248 460.373 23C461.684 17.6158 462.009 11.873 458.196 7.3295C448.926 -3.71579 420.902 2.08481 409 5.42831C374.761 15.0468 346.136 39.1349 324.884 67C270.294 138.578 245.121 243.227 269.152 331C276.516 357.897 290.669 383.417 312 401.7C348.145 432.681 404.695 438.782 447 417.63C462.283 409.988 476.516 398.61 486.87 385C511.51 352.61 519.631 308.685 505.564 270C482.9 207.67 404.049 170.112 342 199Z" fill="#2C5394"/>
</svg>
