<svg width="780" height="551" viewBox="0 0 780 551" fill="none" xmlns="http://www.w3.org/2000/svg">
<g clip-path="url(#clip0_8_3)">
<path d="M52.2837 550.241L51.3325 548.482C64.0859 541.584 79.9583 533.001 88.2485 518.915C96.4209 505.028 96.6042 486.172 88.727 469.704C82.0234 455.688 69.7092 443.131 53.116 433.391C49.843 431.469 46.4072 429.648 43.0844 427.887C35.053 423.631 26.748 419.229 19.9001 412.984C10.4685 404.383 3.33225 389.95 8.65113 377.093C10.4004 372.99 13.2652 369.459 16.9202 366.902C20.5753 364.344 24.8741 362.863 29.3286 362.626L29.4414 364.623C25.3605 364.84 21.422 366.196 18.0729 368.537C14.7237 370.879 12.098 374.112 10.4937 377.871C5.55103 389.818 12.3323 403.376 21.2478 411.507C27.9085 417.581 36.0996 421.922 44.021 426.12C47.3626 427.891 50.8181 429.723 54.1287 431.666C71.0672 441.609 83.6551 454.464 90.5313 468.84C98.6917 485.901 98.4776 505.477 89.9722 519.929C81.3994 534.495 65.2556 543.226 52.2837 550.241Z" fill="#2C5394"/>
<path d="M48.0732 549.952L47.6321 548.002C61.7741 544.803 79.3743 540.823 91.1594 529.498C102.777 518.333 108.044 500.226 104.905 482.243C102.234 466.938 93.7665 451.523 80.4188 437.665C77.786 434.931 74.9694 432.25 72.2455 429.658C65.6612 423.391 58.8529 416.911 53.945 409.049C47.1854 398.222 44.2105 382.397 52.8026 371.454C55.5947 367.975 59.3063 365.349 63.516 363.873C67.7257 362.397 72.2648 362.132 76.6179 363.106L76.1874 365.059C72.1996 364.166 68.0413 364.409 64.1843 365.759C60.3273 367.11 56.9262 369.514 54.3668 372.7C46.3824 382.87 49.252 397.755 55.6415 407.99C60.4152 415.637 67.1304 422.028 73.6243 428.209C76.3637 430.816 79.1965 433.513 81.8596 436.278C95.4849 450.424 104.135 466.2 106.875 481.899C110.127 500.529 104.636 519.32 92.5452 530.94C80.3586 542.651 62.4572 546.7 48.0732 549.952Z" fill="#2C5394"/>
<path d="M42.0044 373.167C51.6694 373.167 59.5044 369.362 59.5044 364.667C59.5044 359.973 51.6694 356.167 42.0044 356.167C32.3394 356.167 24.5044 359.973 24.5044 364.667C24.5044 369.362 32.3394 373.167 42.0044 373.167Z" fill="#B2CCF8"/>
<path d="M85.9775 376.678C95.2836 379.287 103.855 377.738 105.122 373.217C106.39 368.697 99.8729 362.918 90.5667 360.309C81.2606 357.7 72.6891 359.249 71.4218 363.769C70.1545 368.289 76.6713 374.068 85.9775 376.678Z" fill="#B2CCF8"/>
<path d="M56.0044 429.167C65.6694 429.167 73.5044 425.362 73.5044 420.667C73.5044 415.973 65.6694 412.167 56.0044 412.167C46.3394 412.167 38.5044 415.973 38.5044 420.667C38.5044 425.362 46.3394 429.167 56.0044 429.167Z" fill="#B2CCF8"/>
<path d="M84.3402 434.378C93.6464 436.987 102.218 435.438 103.485 430.918C104.752 426.398 98.2356 420.618 88.9294 418.009C79.6233 415.4 71.0518 416.949 69.7845 421.469C68.5173 425.989 75.0341 431.769 84.3402 434.378Z" fill="#B2CCF8"/>
<path d="M24.0044 438.167C33.6694 438.167 41.5044 434.362 41.5044 429.667C41.5044 424.973 33.6694 421.167 24.0044 421.167C14.3394 421.167 6.50439 424.973 6.50439 429.667C6.50439 434.362 14.3394 438.167 24.0044 438.167Z" fill="#B2CCF8"/>
<path d="M51.0987 434.405C60.4048 437.014 68.9763 435.465 70.2436 430.945C71.5109 426.425 64.9941 420.645 55.6879 418.036C46.3818 415.427 37.8103 416.976 36.543 421.496C35.2757 426.017 41.7925 431.796 51.0987 434.405Z" fill="#B2CCF8"/>
<path d="M74.0044 485.167C83.6694 485.167 91.5044 481.362 91.5044 476.667C91.5044 471.973 83.6694 468.167 74.0044 468.167C64.3394 468.167 56.5044 471.973 56.5044 476.667C56.5044 481.362 64.3394 485.167 74.0044 485.167Z" fill="#B2CCF8"/>
<path d="M86.5544 493.158C95.8606 495.767 104.432 494.218 105.699 489.698C106.967 485.178 100.45 479.398 91.1437 476.789C81.8375 474.18 73.2661 475.729 71.9988 480.249C70.7315 484.769 77.2483 490.549 86.5544 493.158Z" fill="#B2CCF8"/>
<path d="M109.004 485.167C118.669 485.167 126.504 481.362 126.504 476.667C126.504 471.973 118.669 468.167 109.004 468.167C99.3394 468.167 91.5044 471.973 91.5044 476.667C91.5044 481.362 99.3394 485.167 109.004 485.167Z" fill="#B2CCF8"/>
<path d="M120.255 502.606C129.561 505.215 138.133 503.666 139.4 499.146C140.667 494.626 134.15 488.847 124.844 486.238C115.538 483.628 106.967 485.178 105.699 489.698C104.432 494.218 110.949 499.997 120.255 502.606Z" fill="#B2CCF8"/>
<path d="M753.671 464H468.838C462.087 463.992 455.614 461.307 450.841 456.533C446.067 451.76 443.382 445.287 443.374 438.536V25.4639C443.382 18.7128 446.067 12.2404 450.841 7.46661C455.614 2.69287 462.087 0.00762002 468.838 0H753.671C760.422 0.00762267 766.895 2.69287 771.668 7.46661C776.442 12.2404 779.127 18.7128 779.135 25.4639V438.536C779.127 445.287 776.442 451.76 771.668 456.533C766.895 461.307 760.422 463.992 753.671 464Z" fill="#B2CCF8"/>
<path d="M754.172 447.753H468.336C466.255 447.751 464.26 446.923 462.789 445.452C461.317 443.98 460.489 441.985 460.487 439.904V24.096C460.489 22.0149 461.317 20.0197 462.789 18.5482C464.26 17.0766 466.255 16.2488 468.336 16.2465H754.172C756.254 16.2488 758.249 17.0766 759.72 18.5482C761.192 20.0197 762.02 22.0149 762.022 24.096V439.904C762.02 441.985 761.192 443.98 759.72 445.452C758.249 446.923 756.254 447.751 754.172 447.753Z" fill="white"/>
<path d="M610.171 9.96453C611.368 9.96453 612.338 8.99468 612.338 7.79833C612.338 6.60197 611.368 5.63213 610.171 5.63213C608.975 5.63213 608.005 6.60197 608.005 7.79833C608.005 8.99468 608.975 9.96453 610.171 9.96453Z" fill="white"/>
<path d="M726.465 290.05H496.044C495.852 290.05 495.669 289.974 495.534 289.839C495.399 289.703 495.323 289.52 495.323 289.329V178.888C495.323 178.696 495.399 178.513 495.534 178.378C495.669 178.242 495.852 178.166 496.044 178.166C496.235 178.166 496.418 178.242 496.554 178.378C496.689 178.513 496.765 178.696 496.765 178.888V288.608H726.465C726.656 288.608 726.839 288.685 726.974 288.82C727.108 288.955 727.184 289.138 727.184 289.329C727.184 289.519 727.108 289.702 726.974 289.838C726.839 289.973 726.656 290.049 726.465 290.05Z" fill="#3324D9"/>
<path d="M545.275 282.117H524.317C523.75 282.117 523.205 281.891 522.804 281.49C522.403 281.089 522.177 280.545 522.176 279.977V251.087C522.177 250.519 522.403 249.975 522.804 249.574C523.205 249.173 523.75 248.947 524.317 248.946H545.275C545.842 248.947 546.386 249.173 546.788 249.574C547.189 249.975 547.415 250.519 547.415 251.087V279.977C547.415 280.545 547.189 281.089 546.788 281.49C546.386 281.891 545.842 282.117 545.275 282.117Z" fill="#2C5394"/>
<path d="M583.494 282.117H562.536C561.969 282.117 561.424 281.891 561.023 281.49C560.622 281.089 560.396 280.545 560.395 279.977V223.684C560.396 223.117 560.622 222.573 561.023 222.171C561.424 221.77 561.969 221.544 562.536 221.544H583.494C584.061 221.544 584.605 221.77 585.007 222.171C585.408 222.573 585.634 223.117 585.634 223.684V279.977C585.634 280.545 585.408 281.089 585.007 281.49C584.605 281.891 584.061 282.117 583.494 282.117Z" fill="#2C5394"/>
<path d="M621.713 282.117H600.755C600.188 282.117 599.644 281.891 599.242 281.49C598.841 281.089 598.615 280.545 598.615 279.977V251.087C598.615 250.519 598.841 249.975 599.242 249.574C599.644 249.173 600.188 248.947 600.755 248.946H621.713C622.28 248.947 622.825 249.173 623.226 249.574C623.627 249.975 623.853 250.519 623.854 251.087V279.977C623.853 280.545 623.627 281.089 623.226 281.49C622.825 281.891 622.28 282.117 621.713 282.117Z" fill="#2C5394"/>
<path d="M659.932 282.117H638.974C638.42 282.129 637.883 281.921 637.482 281.538C637.08 281.155 636.847 280.629 636.834 280.074V212.771C636.847 212.216 637.08 211.69 637.482 211.307C637.883 210.924 638.42 210.715 638.974 210.727H659.932C660.487 210.715 661.023 210.924 661.424 211.307C661.826 211.69 662.059 212.216 662.073 212.771V280.074C662.059 280.629 661.826 281.155 661.424 281.538C661.023 281.921 660.487 282.129 659.932 282.117Z" fill="#2C5394"/>
<path d="M698.151 282.117H677.193C676.626 282.117 676.082 281.891 675.68 281.49C675.279 281.089 675.053 280.545 675.053 279.977V193.397C675.053 192.83 675.279 192.286 675.68 191.885C676.082 191.483 676.626 191.258 677.193 191.257H698.151C698.719 191.258 699.263 191.483 699.664 191.885C700.065 192.286 700.291 192.83 700.292 193.397V279.977C700.291 280.545 700.065 281.089 699.664 281.49C699.263 281.891 698.719 282.117 698.151 282.117Z" fill="#2C5394"/>
<path d="M534.796 240.293C537.185 240.293 539.123 238.356 539.123 235.966C539.123 233.577 537.185 231.639 534.796 231.639C532.406 231.639 530.469 233.577 530.469 235.966C530.469 238.356 532.406 240.293 534.796 240.293Z" fill="#3225C3"/>
<path d="M573.015 212.169C575.405 212.169 577.342 210.232 577.342 207.843C577.342 205.453 575.405 203.516 573.015 203.516C570.625 203.516 568.688 205.453 568.688 207.843C568.688 210.232 570.625 212.169 573.015 212.169Z" fill="#3225C3"/>
<path d="M611.234 240.293C613.624 240.293 615.561 238.356 615.561 235.966C615.561 233.577 613.624 231.639 611.234 231.639C608.844 231.639 606.907 233.577 606.907 235.966C606.907 238.356 608.844 240.293 611.234 240.293Z" fill="#3225C3"/>
<path d="M649.453 198.468C651.843 198.468 653.78 196.531 653.78 194.141C653.78 191.752 651.843 189.815 649.453 189.815C647.064 189.815 645.126 191.752 645.126 194.141C645.126 196.531 647.064 198.468 649.453 198.468Z" fill="#3225C3"/>
<path d="M687.672 182.604C690.062 182.604 691.999 180.667 691.999 178.277C691.999 175.887 690.062 173.95 687.672 173.95C685.283 173.95 683.346 175.887 683.346 178.277C683.346 180.667 685.283 182.604 687.672 182.604Z" fill="#3225C3"/>
<path d="M611.325 236.935L573.015 208.241L535.228 236.543L534.363 235.389L573.015 206.438L611.143 234.997L649.031 193.534L649.184 193.472L687.403 178.073L687.942 179.411L649.875 194.749L611.325 236.935Z" fill="#1400FF"/>
<path d="M274.628 224.485C273.166 224.484 271.721 224.805 270.396 225.424C269.071 226.043 267.899 226.946 266.962 228.069L222.152 226.668L220.399 219.114L197.209 230.43L200.209 251.119L268.499 242.375C269.756 243.352 271.227 244.014 272.792 244.307C274.356 244.6 275.967 244.515 277.492 244.06C279.016 243.605 280.41 242.792 281.558 241.689C282.705 240.587 283.573 239.226 284.089 237.721C284.604 236.216 284.753 234.609 284.523 233.035C284.292 231.46 283.69 229.963 282.764 228.669C281.839 227.374 280.618 226.319 279.203 225.592C277.788 224.864 276.219 224.485 274.628 224.485Z" fill="#9F616A"/>
<path d="M191.627 537.085H203.887L209.72 489.797L191.625 489.798L191.627 537.085Z" fill="#9F616A"/>
<path d="M188.5 533.083L212.644 533.082H212.645C216.726 533.082 220.639 534.703 223.525 537.588C226.41 540.474 228.031 544.387 228.032 548.468V548.968L188.501 548.969L188.5 533.083Z" fill="#2F2E41"/>
<path d="M145.367 527.336L157.145 530.74L175.877 486.93L158.494 481.907L145.367 527.336Z" fill="#9F616A"/>
<path d="M143.474 522.623L166.669 529.325C170.589 530.458 173.899 533.102 175.87 536.676C177.841 540.249 178.312 544.458 177.179 548.379L177.04 548.859L139.063 537.885L143.474 522.623Z" fill="#2F2E41"/>
<path d="M176.572 331.748C176.572 331.748 172.211 343.914 179.09 360.514L184.399 428.882L185.969 526.114H208.32L221.846 426.992L229.969 337.114L176.572 331.748Z" fill="#2F2E41"/>
<path d="M164.001 331.748C164.001 331.748 159.64 343.914 166.519 360.514L171.828 428.882L145.399 521.485H167.749L209.275 426.992L217.399 337.114L164.001 331.748Z" fill="#2F2E41"/>
<path d="M229.567 174.938C243.132 174.938 254.128 163.941 254.128 150.377C254.128 136.812 243.132 125.816 229.567 125.816C216.002 125.816 205.006 136.812 205.006 150.377C205.006 163.941 216.002 174.938 229.567 174.938Z" fill="#9F616A"/>
<path d="M232.852 210.121L227.875 186.995L202.531 172.605L197.391 179.8C197.391 179.8 161.127 189.329 165.513 230.972C169.899 272.614 167.899 292.614 167.899 292.614L157.899 338.614C157.899 338.614 160.977 339.143 231.628 351.485L234.628 251.485L232.852 210.121Z" fill="#CBCBCB"/>
<path opacity="0.1" d="M208.266 435.17L185.251 481.659V494.985L208.266 435.17Z" fill="black"/>
<path d="M203.085 158.145C205.427 164.417 214.288 165.286 217.414 159.366C217.657 158.906 217.855 158.425 218.005 157.927C218.861 155.083 218.323 151.951 219.904 149.232C220.289 148.552 220.841 147.981 221.509 147.574C226.765 144.474 231.939 154.311 236.826 151.559C239.823 149.872 239.182 144.971 241.849 142.799C245.369 139.932 250.454 144.202 254.967 143.714C259.989 143.172 262.365 136.81 261.274 131.879C259.942 125.864 255.237 120.983 249.716 118.252C244.194 115.521 237.921 114.696 231.763 114.543C224.766 114.369 217.445 115.112 211.529 118.852C204.335 123.399 200.282 131.866 199.384 140.33C198.839 145.478 201.173 153.024 203.085 158.145Z" fill="#2F2E41"/>
<path d="M323.44 326.732C323.476 326.732 323.512 326.732 323.549 326.73C342.053 325.762 359.495 317.782 372.325 304.413C385.156 291.044 392.414 273.29 392.621 254.761C392.829 236.233 385.972 218.32 373.444 204.667C360.916 191.014 343.658 182.645 325.179 181.263C324.951 181.245 324.721 181.274 324.505 181.349C324.288 181.424 324.089 181.543 323.921 181.699C323.753 181.852 323.619 182.038 323.526 182.245C323.434 182.452 323.385 182.677 323.383 182.904L321.79 325.049C321.786 325.491 321.957 325.916 322.267 326.232C322.576 326.547 322.998 326.727 323.44 326.732Z" fill="#08285D"/>
<path d="M266.279 204.768C266.847 204.774 267.388 205.006 267.786 205.411L316.72 255.455C316.917 255.655 317.072 255.893 317.177 256.153C317.282 256.414 317.333 256.692 317.33 256.973L316.567 324.99C316.565 325.282 316.502 325.57 316.383 325.837C316.264 326.103 316.092 326.342 315.876 326.539C315.659 326.738 315.404 326.89 315.127 326.987C314.849 327.083 314.554 327.121 314.261 327.099C300.655 326.081 287.603 321.289 276.571 313.261C265.539 305.233 256.964 294.288 251.81 281.655C246.656 269.022 245.127 255.202 247.395 241.748C249.663 228.294 255.638 215.739 264.649 205.493C264.844 205.273 265.082 205.094 265.349 204.97C265.616 204.845 265.906 204.776 266.2 204.768C266.226 204.767 266.253 204.767 266.279 204.768Z" fill="#E6E6E6"/>
<path d="M316.039 180.682C316.585 180.688 317.109 180.902 317.503 181.28C317.715 181.482 317.883 181.725 317.996 181.994C318.109 182.264 318.165 182.553 318.16 182.846L317.473 244.215C317.468 244.637 317.338 245.049 317.099 245.398C316.86 245.746 316.524 246.017 316.131 246.174C315.739 246.331 315.309 246.369 314.896 246.282C314.482 246.195 314.104 245.987 313.808 245.685L271.107 202.015C270.91 201.814 270.755 201.576 270.651 201.315C270.546 201.054 270.494 200.775 270.497 200.494C270.501 200.212 270.559 199.935 270.67 199.676C270.781 199.418 270.941 199.183 271.142 198.987C271.168 198.962 271.195 198.937 271.222 198.913C283.641 187.982 299.385 181.559 315.906 180.684C315.95 180.682 315.995 180.681 316.039 180.682Z" fill="#2C5394"/>
<path d="M249.628 252.485C248.166 252.484 246.721 252.805 245.396 253.424C244.071 254.043 242.899 254.946 241.962 256.069L197.152 254.668L195.399 247.114L172.209 258.43L175.209 279.119L243.499 270.375C244.756 271.352 246.227 272.014 247.792 272.307C249.356 272.6 250.967 272.515 252.492 272.06C254.016 271.605 255.41 270.792 256.558 269.689C257.705 268.587 258.573 267.226 259.089 265.721C259.604 264.216 259.753 262.609 259.523 261.035C259.292 259.46 258.69 257.963 257.764 256.669C256.839 255.374 255.618 254.319 254.203 253.592C252.788 252.864 251.219 252.485 249.628 252.485Z" fill="#9F616A"/>
<path d="M168.431 266.951L167.185 205.318C167.142 203.162 167.526 201.018 168.316 199.01C169.106 197.003 170.287 195.172 171.789 193.624C173.291 192.075 175.085 190.84 177.067 189.989C179.05 189.139 181.181 188.69 183.338 188.668C185.495 188.646 187.635 189.052 189.635 189.862C191.634 190.673 193.453 191.872 194.986 193.389C196.519 194.907 197.736 196.713 198.566 198.704C199.397 200.695 199.825 202.831 199.825 204.988V250.031L168.431 266.951Z" fill="#CBCBCB"/>
<path d="M382 550H1C0.734784 550 0.480429 549.895 0.292892 549.707C0.105356 549.52 0 549.265 0 549C0 548.735 0.105356 548.48 0.292892 548.293C0.480429 548.105 0.734784 548 1 548H382C382.265 548 382.52 548.105 382.707 548.293C382.895 548.48 383 548.735 383 549C383 549.265 382.895 549.52 382.707 549.707C382.52 549.895 382.265 550 382 550Z" fill="#2C5394"/>
</g>
<defs>
<clipPath id="clip0_8_3">
<rect width="779.135" height="550.241" fill="white"/>
</clipPath>
</defs>
</svg>
