<svg width="500" height="78" viewBox="0 0 500 78" fill="none" xmlns="http://www.w3.org/2000/svg">
<path d="M499.56 77.53V5.08C499.44 5.03906 499.316 5.01221 499.19 5H497.46C497.27 5.01327 497.081 4.95634 496.93 4.84C496.678 4.64221 496.389 4.49609 496.08 4.41C495.965 4.36246 495.857 4.29847 495.76 4.22C495.553 4.06222 495.3 3.97777 495.04 3.98L494.67 3.92C494.607 3.90684 494.548 3.8804 494.496 3.84245C494.444 3.80451 494.401 3.75594 494.37 3.7C494.336 3.64546 494.306 3.58866 494.28 3.53C494.241 3.37506 494.151 3.23801 494.023 3.14161C493.896 3.04521 493.74 2.99524 493.58 3H491.47C491.214 2.98851 490.967 2.90153 490.76 2.75C490.715 2.707 490.665 2.67003 490.61 2.64C490.248 2.51563 489.897 2.36178 489.56 2.18C489.45 2.11683 489.327 2.08243 489.2 2.08C488.814 2.0689 488.44 1.93977 488.13 1.71C488.022 1.63939 487.898 1.59803 487.77 1.59C487.455 1.53954 487.135 1.53954 486.82 1.59C486.57 1.64117 486.334 1.74704 486.13 1.9C486.022 1.96853 485.898 2.00494 485.77 2.00494C485.642 2.00494 485.518 1.96853 485.41 1.9L485.26 1.79C485.172 1.69499 485.062 1.62199 484.941 1.57684C484.819 1.53169 484.689 1.51564 484.56 1.53C484.44 1.53 484.33 1.64 484.21 1.69C484.155 1.70986 484.095 1.70986 484.04 1.69C483.888 1.64439 483.728 1.62973 483.57 1.64691C483.412 1.66408 483.259 1.71274 483.12 1.79C483.006 1.84726 482.877 1.87106 482.75 1.85868C482.623 1.8463 482.501 1.79823 482.4 1.72C482.35 1.72 482.31 1.64 482.25 1.61C482.124 1.5127 481.969 1.45991 481.81 1.45991C481.651 1.45991 481.496 1.5127 481.37 1.61L480.78 2.11C480.634 2.23098 480.45 2.29804 480.26 2.3H478.92C478.73 2.3176 478.548 2.38296 478.39 2.49C478.284 2.56354 478.17 2.62398 478.05 2.67C477.751 2.78468 477.419 2.78468 477.12 2.67C477 2.62 476.9 2.53 476.79 2.48C476.672 2.43068 476.552 2.38729 476.43 2.35C476.338 2.33848 476.245 2.35083 476.159 2.38586C476.073 2.42089 475.998 2.47741 475.94 2.55C475.88 2.67 475.84 2.79 475.79 2.91C475.74 3.03 475.57 3.24 475.38 3.25C475.254 3.26821 475.126 3.23975 475.02 3.17C474.728 2.91649 474.357 2.77167 473.97 2.76C473.91 2.76479 473.85 2.76479 473.79 2.76C473.662 2.74185 473.541 2.69009 473.44 2.61C473.183 2.41794 472.871 2.31285 472.55 2.31H471.97C471.778 2.3095 471.591 2.25397 471.43 2.15C471.164 1.96967 470.851 1.86906 470.53 1.86C470.274 1.84678 470.028 1.75997 469.82 1.61C469.623 1.44099 469.369 1.35493 469.11 1.37L468.35 1.3C468.158 1.28232 467.976 1.20545 467.83 1.08C467.685 0.956375 467.508 0.876582 467.32 0.85C466.874 0.810018 466.426 0.810018 465.98 0.85C465.786 0.848796 465.599 0.916101 465.45 1.04C465.097 1.39881 464.719 1.73293 464.32 2.04C464.265 2.0716 464.203 2.08823 464.14 2.08823C464.077 2.08823 464.015 2.0716 463.96 2.04C463.621 1.85546 463.232 1.78531 462.85 1.84C462.721 1.84447 462.596 1.88614 462.49 1.96C462.339 2.07588 462.167 2.16036 461.983 2.20846C461.8 2.25655 461.608 2.26728 461.42 2.24C461.29 2.23754 461.163 2.2032 461.05 2.14C460.781 1.97081 460.492 1.8364 460.19 1.74C460.013 1.67256 459.848 1.57811 459.7 1.46C459.592 1.38921 459.468 1.3447 459.34 1.33L458.39 1.25C458.198 1.23435 458.015 1.15721 457.87 1.03C457.727 0.897905 457.544 0.81701 457.35 0.799997C457.04 0.799997 456.72 0.749999 456.4 0.739999C456.273 0.734101 456.149 0.696273 456.04 0.629998C455.934 0.559224 455.824 0.495748 455.71 0.440004C455.535 0.36316 455.346 0.32348 455.155 0.32348C454.964 0.32348 454.775 0.36316 454.6 0.440004C454.538 0.457688 454.48 0.488355 454.43 0.53C454.178 0.727621 453.99 0.995579 453.89 1.3C453.871 1.3616 453.848 1.42176 453.82 1.48C453.776 1.56335 453.711 1.63441 453.633 1.68677C453.554 1.73913 453.464 1.77117 453.37 1.78H452.8C452.35 1.78 451.9 1.78 451.46 1.78C451.265 1.7721 451.075 1.84024 450.93 1.97C450.84 2.07 450.73 2.13 450.64 2.22C450.535 2.34178 450.396 2.42827 450.24 2.46764C450.084 2.50702 449.92 2.49737 449.77 2.44C449.714 2.41108 449.653 2.39597 449.59 2.39597C449.527 2.39597 449.466 2.41108 449.41 2.44C449.357 2.4735 449.298 2.49607 449.236 2.50637C449.174 2.51668 449.111 2.51451 449.05 2.5C448.812 2.40538 448.548 2.40538 448.31 2.5C448.196 2.56122 448.075 2.60823 447.95 2.64C447.573 2.70494 447.187 2.70494 446.81 2.64C446.683 2.62249 446.564 2.56667 446.47 2.48L445.72 1.88C445.671 1.84103 445.612 1.81676 445.55 1.81C445.244 1.71526 444.916 1.71526 444.61 1.81L444.43 1.88C444.355 1.93297 444.266 1.96143 444.175 1.96143C444.084 1.96143 443.994 1.93297 443.92 1.88C443.692 1.76094 443.438 1.69917 443.18 1.7C442.861 1.68261 442.546 1.77821 442.29 1.97C442.091 2.07344 441.869 2.12743 441.645 2.12743C441.42 2.12743 441.199 2.07344 441 1.97C440.807 1.80401 440.564 1.7057 440.31 1.69H439.93C439.74 1.67823 439.559 1.60043 439.42 1.47C439.26 1.26938 439.067 1.097 438.85 0.96C438.795 0.930241 438.733 0.914666 438.67 0.914666C438.607 0.914666 438.545 0.930241 438.49 0.96C438.429 0.979971 438.371 1.01042 438.32 1.05L437.75 1.56C437.671 1.61105 437.581 1.64303 437.487 1.65344C437.393 1.66385 437.299 1.6524 437.21 1.62C436.5 1.2 436.5 1.2 435.98 1.21H435.56C435.304 1.22433 435.058 1.31104 434.85 1.46C434.698 1.57778 434.525 1.66597 434.34 1.72C434.216 1.7463 434.099 1.80107 434 1.88C433.669 2.07634 433.415 2.37973 433.28 2.74C433.15 2.94 433.06 2.97 432.81 2.86C432.755 2.82614 432.699 2.79606 432.64 2.77C432.522 2.72249 432.393 2.71043 432.269 2.73531C432.145 2.76018 432.03 2.8209 431.94 2.91C431.55 3.25 431.19 3.61 430.81 3.91C430.707 3.98469 430.588 4.03213 430.462 4.04787C430.336 4.06361 430.208 4.04714 430.09 4C430.03 4 429.97 4 429.92 3.91C429.77 3.78838 429.596 3.69979 429.41 3.65C429.288 3.62162 429.171 3.57793 429.06 3.52L428.56 3.53C428.497 3.51974 428.433 3.51974 428.37 3.53C428.054 3.4722 427.728 3.52893 427.45 3.69C427.183 3.86566 426.869 3.95631 426.55 3.95H425.98H423.49C423.296 3.94781 423.107 4.00736 422.95 4.12C422.747 4.27603 422.505 4.37294 422.25 4.4C422.122 4.41021 421.995 4.43027 421.87 4.46C421.746 4.48353 421.632 4.54708 421.548 4.64097C421.463 4.73485 421.411 4.85392 421.4 4.98C421.4 5.11 421.4 5.24 421.4 5.36C421.394 5.488 421.361 5.61324 421.302 5.72714C421.243 5.84105 421.161 5.94095 421.06 6.02001C421.022 6.07136 420.978 6.11831 420.93 6.16C420.785 6.28722 420.602 6.36435 420.41 6.38001C420.282 6.37799 420.158 6.3321 420.06 6.25C419.82 6.03599 419.511 5.91532 419.19 5.91C418.867 5.9154 418.554 5.80144 418.31 5.59C418.209 5.51609 418.093 5.46493 417.97 5.44C417.781 5.40231 417.605 5.31616 417.46 5.19C417.32 5.06 417.17 4.94 417.02 4.82L416.86 4.71C416.809 4.67337 416.748 4.65367 416.685 4.65367C416.622 4.65367 416.561 4.67337 416.51 4.71C416.235 4.86918 415.951 5.01274 415.66 5.14C415.394 5.30727 415.108 5.44158 414.81 5.53999C414.779 5.54844 414.75 5.56434 414.726 5.58632C414.703 5.6083 414.685 5.63569 414.674 5.66617C414.663 5.69665 414.66 5.72931 414.664 5.76132C414.669 5.79334 414.681 5.82377 414.7 5.85001C414.834 6.06816 414.887 6.3266 414.85 6.58C414.833 6.63996 414.804 6.69583 414.765 6.74422C414.725 6.79261 414.677 6.83251 414.621 6.8615C414.566 6.89049 414.506 6.90798 414.444 6.91287C414.382 6.91777 414.319 6.90999 414.26 6.89C414.036 6.75325 413.802 6.63294 413.56 6.53C413.261 6.42046 412.981 6.26528 412.73 6.06999C412.622 6.00249 412.498 5.96456 412.37 5.95999C412.052 5.90475 411.725 5.97659 411.46 6.16C411.264 6.32138 411.04 6.44665 410.8 6.53C410.68 6.57348 410.568 6.6378 410.47 6.72C410.163 6.94903 409.884 7.21427 409.64 7.51C409.564 7.61017 409.513 7.72658 409.49 7.85001C409.459 7.97443 409.443 8.10187 409.44 8.23C409.434 8.48553 409.35 8.73316 409.2 8.94C409.078 9.08861 409.002 9.26913 408.98 9.45999C408.954 9.58529 408.937 9.71229 408.93 9.84C408.902 10.0974 408.781 10.3357 408.59 10.51C408.452 10.6428 408.322 10.783 408.2 10.93C408.073 11.0735 407.989 11.2505 407.96 11.44V11.82C407.96 11.95 407.96 12.08 407.96 12.2C407.954 12.5221 407.826 12.8299 407.6 13.06C407.498 13.1817 407.371 13.2803 407.228 13.3493C407.085 13.4183 406.929 13.456 406.77 13.46C406.512 13.4828 406.253 13.4233 406.03 13.29C405.97 13.29 405.92 13.2 405.87 13.2C405.742 13.1823 405.612 13.2069 405.5 13.27C405.338 13.3754 405.185 13.4924 405.04 13.62C404.905 13.7535 404.741 13.853 404.56 13.91C404.374 13.9535 404.197 14.0315 404.04 14.14C403.833 14.2875 403.592 14.3803 403.34 14.41C403.15 14.41 402.96 14.47 402.77 14.5C402.58 14.53 402.48 14.75 402.33 14.86L401.87 15.2C401.848 15.2224 401.821 15.2401 401.792 15.2522C401.763 15.2644 401.732 15.2706 401.7 15.2706C401.668 15.2706 401.637 15.2644 401.608 15.2522C401.579 15.2401 401.552 15.2224 401.53 15.2L401.08 14.84C400.984 14.7576 400.862 14.7123 400.735 14.7123C400.608 14.7123 400.486 14.7576 400.39 14.84C400.24 14.97 400.09 15.08 399.95 15.22C399.807 15.3453 399.629 15.4223 399.44 15.44C399.25 15.44 399.05 15.44 398.86 15.44H398.48C398.416 15.4432 398.354 15.4601 398.297 15.4894C398.24 15.5187 398.19 15.5598 398.15 15.61C398.097 15.6888 398.065 15.7794 398.057 15.8737C398.048 15.968 398.063 16.0629 398.1 16.15L398.19 16.32C398.19 16.38 398.26 16.43 398.29 16.48C398.384 16.611 398.426 16.7718 398.41 16.9321C398.393 17.0923 398.319 17.241 398.2 17.35C397.93 17.63 397.77 17.78 397.4 17.48C397.188 17.339 397.03 17.1313 396.95 16.89L396.87 16.71C396.794 16.6096 396.685 16.5393 396.563 16.5118C396.44 16.4844 396.311 16.5014 396.2 16.56C395.833 16.8124 395.497 17.1078 395.2 17.44C395.081 17.5904 394.996 17.7642 394.95 17.95C394.915 18.0712 394.843 18.1786 394.745 18.2574C394.646 18.3362 394.526 18.3825 394.4 18.39L393.83 18.48C393.704 18.5018 393.587 18.5571 393.49 18.64C393.36 18.7331 393.212 18.7995 393.056 18.8355C392.9 18.8716 392.738 18.8765 392.58 18.85C392.388 18.8429 392.201 18.7841 392.04 18.68C391.942 18.5978 391.83 18.5335 391.71 18.49C391.618 18.4657 391.521 18.4602 391.427 18.4739C391.332 18.4877 391.242 18.5204 391.16 18.57C390.9 18.75 390.66 18.96 390.41 19.16C390.314 19.2428 390.202 19.3042 390.08 19.34C389.773 19.4398 389.504 19.6318 389.31 19.89C389.174 20.0227 389.069 20.183 389 20.36C388.89 20.6593 388.704 20.9248 388.46 21.13C388.324 21.2663 388.15 21.3571 387.96 21.39H387.57C387.318 21.4211 387.083 21.5334 386.9 21.71C386.81 21.8 386.7 21.88 386.61 21.96C386.55 22.0332 386.469 22.0873 386.379 22.1157C386.288 22.1441 386.191 22.1456 386.1 22.12C385.66 22.12 385.55 22.12 385.48 22.6V22.79C385.45 23.0438 385.329 23.2782 385.14 23.45C384.978 23.649 384.745 23.7779 384.49 23.81C384.299 23.8131 384.11 23.8469 383.93 23.91C383.87 23.91 383.79 23.91 383.76 23.98C383.681 24.0784 383.62 24.1902 383.58 24.31C383.548 24.4342 383.531 24.5618 383.53 24.69C383.53 24.88 383.53 25.07 383.53 25.26C383.52 25.3869 383.467 25.5066 383.38 25.5993C383.292 25.692 383.176 25.7522 383.05 25.77C382.287 25.815 381.523 25.815 380.76 25.77C380.504 25.7651 380.253 25.6964 380.03 25.57C379.938 25.5461 379.843 25.5445 379.75 25.5654C379.658 25.5862 379.572 25.629 379.5 25.69C379.15 25.9777 378.816 26.2848 378.5 26.61C378.32 26.7904 378.129 26.9607 377.93 27.12C377.88 27.1616 377.822 27.1923 377.76 27.21C377.512 27.2716 377.256 27.2986 377 27.29C376.618 27.2663 376.241 27.3837 375.94 27.62C375.83 27.6881 375.708 27.7324 375.58 27.75C375.455 27.7771 375.328 27.7938 375.2 27.8H374.82C374.564 27.8007 374.313 27.8773 374.1 28.02C373.843 28.2117 373.53 28.3136 373.21 28.31C373.017 28.3135 372.83 28.3725 372.67 28.48C372.346 28.6878 371.965 28.7892 371.58 28.77C371.196 28.7501 370.81 28.7702 370.43 28.83C370.367 28.8359 370.307 28.8528 370.25 28.88C370.196 28.9152 370.149 28.9591 370.11 29.01C369.93 29.19 369.74 29.36 369.57 29.55C369.439 29.6866 369.295 29.8105 369.14 29.92C369.048 30.0057 368.926 30.0534 368.8 30.0534C368.674 30.0534 368.552 30.0057 368.46 29.92C368.382 29.8633 368.291 29.8264 368.195 29.8125C368.099 29.7985 368.001 29.808 367.91 29.84C367.73 29.89 367.56 29.98 367.38 30.03C367.2 30.08 367.01 30.03 366.82 29.97C366.63 29.91 366.73 30.03 366.7 30.08C366.675 30.1368 366.662 30.198 366.662 30.26C366.662 30.3219 366.675 30.3832 366.7 30.44C366.716 30.5031 366.747 30.5615 366.79 30.61C367.1 31.02 367.48 31.37 367.79 31.75C368.02 31.88 368.12 31.99 368.15 32.15C368.205 32.397 368.205 32.653 368.15 32.9C368.14 32.962 368.106 33.0177 368.056 33.0551C368.005 33.0925 367.942 33.1086 367.88 33.1C367.818 33.0962 367.758 33.0779 367.704 33.0467C367.65 33.0154 367.604 32.972 367.57 32.92C367.542 32.8618 367.519 32.8016 367.5 32.74C367.432 32.5634 367.388 32.3784 367.37 32.19L367.06 31.97L366.91 31.86C366.733 31.7904 366.537 31.7904 366.36 31.86C366.096 32.0354 365.842 32.2257 365.6 32.43C365.37 32.59 365.18 32.55 364.98 32.27C364.78 31.99 364.77 31.97 364.91 31.76C365.019 31.6041 365.082 31.4202 365.09 31.23C365.118 30.8972 365.118 30.5627 365.09 30.23C365.09 30.07 365.02 29.99 364.86 30C364.8 29.9897 364.74 29.9897 364.68 30C364.505 30.0754 364.353 30.1962 364.24 30.35C364.074 30.5393 363.882 30.7043 363.67 30.84C363.46 31 363.33 31.01 363.18 30.89L362.89 30.65C362.841 30.6077 362.787 30.5709 362.73 30.54C362.46 30.35 362.2 30.36 362.13 30.63C362.034 30.9984 361.807 31.3188 361.49 31.53C361.409 31.5802 361.318 31.6132 361.223 31.6269C361.129 31.6407 361.032 31.6349 360.94 31.61C360.763 31.5487 360.6 31.4536 360.46 31.33C360.34 31.3038 360.229 31.245 360.14 31.16C359.952 31.006 359.819 30.7956 359.76 30.56C359.569 30.3009 359.319 30.0917 359.03 29.95C358.977 29.9139 358.914 29.8946 358.85 29.8946C358.786 29.8946 358.723 29.9139 358.67 29.95C358.51 30.0513 358.324 30.1051 358.135 30.1051C357.946 30.1051 357.76 30.0513 357.6 29.95C357.522 29.8916 357.427 29.86 357.33 29.86C357.233 29.86 357.138 29.8916 357.06 29.95C356.835 30.0666 356.583 30.1218 356.33 30.11C356.139 30.1144 355.949 30.0696 355.78 29.98C355.573 29.8283 355.344 29.7102 355.1 29.63C354.85 29.63 354.67 29.37 354.44 29.25C354.269 29.1628 354.081 29.1149 353.89 29.11H353.51C353.189 29.0937 352.874 29.1931 352.62 29.39C352.42 29.5542 352.169 29.6428 351.91 29.64C351.654 29.655 351.396 29.655 351.14 29.64C350.948 29.6272 350.767 29.5456 350.63 29.41C350.535 29.3263 350.427 29.2587 350.31 29.21C350.252 29.1831 350.189 29.1692 350.125 29.1692C350.061 29.1692 349.998 29.1831 349.94 29.21C349.6 29.39 349.36 29.71 349.03 29.9C348.984 29.9429 348.923 29.9667 348.86 29.9667C348.797 29.9667 348.736 29.9429 348.69 29.9C348.5 29.73 348.31 29.56 348.13 29.37C347.95 29.18 347.85 29.12 347.71 28.99C347.634 28.9317 347.545 28.8937 347.45 28.8797C347.356 28.8657 347.259 28.8762 347.17 28.91C346.889 29.0629 346.568 29.1257 346.25 29.09C346.122 29.0896 345.996 29.0623 345.88 29.01L345.38 28.72C345.14 28.6396 344.909 28.5357 344.69 28.41C344.419 28.237 344.101 28.1531 343.78 28.17H340.76C340.505 28.1689 340.255 28.2419 340.04 28.38C339.825 28.5199 339.576 28.5993 339.32 28.61H337.02H336.02C335.829 28.6156 335.646 28.6861 335.5 28.81C335.402 28.8938 335.286 28.9522 335.16 28.98L334.6 29.07C334.345 29.1176 334.107 29.2314 333.91 29.4C333.6 29.63 333.4 29.61 333.06 29.4C332.965 29.388 332.877 29.3455 332.808 29.2787C332.739 29.2119 332.694 29.1246 332.68 29.03L332.38 28.8C332.234 28.6808 332.048 28.6202 331.86 28.63C331.609 28.601 331.355 28.6462 331.13 28.76C331.021 28.8246 330.907 28.8814 330.79 28.93C330.76 28.9824 330.718 29.027 330.668 29.06C330.617 29.093 330.56 29.1136 330.5 29.12H330.15C330.062 29.1213 329.976 29.0998 329.898 29.0578C329.821 29.0157 329.756 28.9545 329.71 28.88C329.683 28.8275 329.669 28.7692 329.669 28.71C329.669 28.6508 329.683 28.5925 329.71 28.54V28.13C329.629 27.9977 329.523 27.8828 329.398 27.7918C329.273 27.7008 329.131 27.6356 328.98 27.6C328.797 27.5536 328.627 27.4683 328.48 27.35C328.27 27.2 328.13 27.35 327.99 27.46C327.893 27.5353 327.803 27.619 327.72 27.71C327.47 27.94 327.54 28.42 327.8 28.5C328.06 28.58 328.03 28.59 328.15 28.63C328.239 28.6588 328.318 28.7129 328.376 28.7857C328.435 28.8586 328.471 28.9469 328.48 29.04C328.549 29.4068 328.549 29.7832 328.48 30.15C328.466 30.2112 328.437 30.2682 328.398 30.3168C328.358 30.3653 328.307 30.4041 328.25 30.43C328.076 30.5034 327.888 30.5376 327.7 30.53C327.457 30.5486 327.215 30.4775 327.02 30.33C327.02 30.49 326.96 30.65 326.92 30.82C326.908 30.8825 326.88 30.9409 326.84 30.99C326.745 31.1553 326.602 31.2878 326.43 31.37C326.311 31.4144 326.179 31.4144 326.06 31.37L325.7 31.23C325.641 31.205 325.578 31.193 325.514 31.1949C325.45 31.1968 325.388 31.2126 325.331 31.2412C325.273 31.2697 325.223 31.3103 325.183 31.3602C325.144 31.4101 325.115 31.468 325.1 31.53C325 31.8319 324.816 32.099 324.57 32.3L324.42 32.42C324.322 32.501 324.205 32.556 324.08 32.58L323.51 32.68C323.416 32.6967 323.329 32.7393 323.259 32.8029C323.188 32.8666 323.136 32.9487 323.11 33.04C323.051 33.1877 322.958 33.3191 322.838 33.4235C322.718 33.5278 322.574 33.6021 322.42 33.64C322.298 33.6733 322.188 33.739 322.1 33.83C321.91 33.99 321.74 34.19 321.55 34.36C321.406 34.4894 321.235 34.585 321.05 34.64C320.925 34.6575 320.806 34.7019 320.7 34.77C320.434 34.9404 320.149 35.0781 319.85 35.18C319.526 35.3672 319.192 35.5375 318.85 35.69C318.732 35.7394 318.628 35.8187 318.55 35.92L318.27 36.18C318.046 36.4068 317.767 36.5721 317.46 36.66C317.24 36.73 317.19 36.79 317.1 37.07C317.019 37.3103 316.89 37.5315 316.72 37.72C316.462 38.0014 316.174 38.253 315.86 38.47C315.806 38.5045 315.744 38.5251 315.68 38.53C315.302 38.59 314.918 38.59 314.54 38.53C314.41 38.5232 314.285 38.4779 314.18 38.4C313.869 38.1723 313.484 38.0689 313.1 38.11L312.15 38.16C312.142 38.461 312.119 38.7614 312.08 39.06C312.072 39.2139 312.006 39.3589 311.894 39.465C311.782 39.5711 311.634 39.6302 311.48 39.63H311.3L310.58 39.71C310.4 39.94 310.3 40.01 310.14 40.03L309.57 40.09C309.442 40.095 309.32 40.1405 309.22 40.22C308.93 40.48 308.52 40.52 308.22 40.75C307.915 40.9838 307.544 41.1135 307.16 41.12C306.968 41.1254 306.786 41.2041 306.65 41.34C306.403 41.54 306.163 41.75 305.93 41.97L305.13 42.79C304.998 42.9317 304.822 43.0235 304.63 43.05C304.45 43.05 304.26 43.11 304.07 43.16C304.012 43.173 303.961 43.2045 303.923 43.2497C303.885 43.2948 303.863 43.3511 303.86 43.41C304.024 43.7558 304.096 44.1381 304.07 44.52C304.065 44.6476 304.027 44.7717 303.96 44.88C303.787 45.1457 303.646 45.431 303.54 45.73C303.497 45.816 303.433 45.8901 303.355 45.9459C303.276 46.0017 303.185 46.0374 303.09 46.05C302.91 46.05 302.72 46.12 302.53 46.14C302.403 46.1498 302.283 46.2028 302.19 46.29C302.05 46.42 301.89 46.54 301.75 46.66C301.52 46.8855 301.212 47.0144 300.89 47.02C300.19 47.02 299.49 47.02 298.79 47.02C298.598 47.0055 298.408 47.0665 298.26 47.19L297.54 47.82C297.389 47.9414 297.203 48.0114 297.01 48.02H296.25C296.06 48.0098 295.87 48.0098 295.68 48.02C295.489 48.0419 295.309 48.1182 295.16 48.24C294.998 48.3562 294.863 48.5055 294.763 48.6778C294.663 48.8502 294.6 49.0418 294.58 49.24C294.558 49.3652 294.528 49.4888 294.49 49.61C294.622 49.8843 294.647 50.1982 294.56 50.49C294.545 50.5483 294.519 50.6032 294.483 50.6512C294.447 50.6993 294.402 50.7397 294.35 50.77C294.355 50.8299 294.355 50.8901 294.35 50.95C294.319 50.8841 294.302 50.8127 294.3 50.74C294.229 50.6943 294.173 50.628 294.14 50.55C294.135 50.4901 294.135 50.4299 294.14 50.37C294.14 50.13 294.14 49.88 294.14 49.64H293.95C293.697 49.6188 293.455 49.5289 293.25 49.38C293.105 49.2584 292.939 49.1636 292.76 49.1C292.579 49.0402 292.409 48.9488 292.26 48.83C291.89 48.48 291.51 48.15 291.12 47.83C291.071 47.7921 291.018 47.7618 290.96 47.74C290.901 47.7155 290.838 47.7029 290.775 47.7029C290.711 47.7029 290.649 47.7155 290.59 47.74C290.421 47.8201 290.258 47.9103 290.1 48.01C289.959 48.0833 289.799 48.1111 289.641 48.0897C289.483 48.0682 289.336 47.9984 289.22 47.89L288.95 47.62C288.701 47.3323 288.423 47.0709 288.12 46.84C288.021 46.7562 287.899 46.7039 287.77 46.69C287.65 46.69 287.52 46.69 287.4 46.69C287.145 46.6711 286.9 46.5848 286.69 46.44C286.536 46.3236 286.352 46.2542 286.16 46.24C285.72 46.24 285.27 46.24 284.83 46.19C284.639 46.1861 284.455 46.1153 284.31 45.99C283.94 45.65 283.61 45.26 283.2 44.99C283.05 44.8718 282.87 44.799 282.68 44.78C282.175 44.73 281.665 44.73 281.16 44.78C281.097 44.7945 281.036 44.8181 280.98 44.85C280.75 44.94 280.57 45.14 280.31 45.19C280.067 45.2573 279.829 45.3442 279.6 45.45C279.542 45.4735 279.48 45.4812 279.418 45.4724C279.357 45.4637 279.299 45.4386 279.25 45.4C279.059 45.2291 278.859 45.0689 278.65 44.92C278.431 44.8006 278.204 44.697 277.97 44.61C277.914 44.5774 277.867 44.5331 277.83 44.48C277.75 44.31 277.68 44.13 277.61 43.96C277.591 43.8974 277.551 43.8437 277.496 43.8087C277.44 43.7738 277.375 43.7601 277.31 43.77C277.249 43.7616 277.188 43.7661 277.129 43.7833C277.071 43.8006 277.016 43.8301 276.97 43.87C276.882 43.9624 276.808 44.0667 276.75 44.18C276.697 44.2952 276.604 44.3867 276.487 44.4366C276.371 44.4865 276.24 44.4913 276.12 44.45C276.059 44.4321 275.994 44.4291 275.931 44.4413C275.869 44.4535 275.81 44.4805 275.76 44.52C275.549 44.6583 275.303 44.7346 275.05 44.74C274.61 44.74 274.16 44.74 273.72 44.74C273.627 44.7519 273.538 44.7888 273.464 44.847C273.39 44.9051 273.334 44.9821 273.3 45.07C273.25 45.25 273.22 45.44 273.17 45.62C273.161 45.6814 273.133 45.7384 273.09 45.7832C273.047 45.8279 272.991 45.8583 272.93 45.87C272.868 45.8739 272.806 45.8633 272.748 45.839C272.691 45.8147 272.64 45.7774 272.6 45.73C272.504 45.6482 272.426 45.5473 272.371 45.4337C272.315 45.32 272.285 45.1962 272.28 45.07C272.275 45.0067 272.275 44.9433 272.28 44.88C272.164 44.9286 272.066 45.0126 272 45.12C271.801 45.4475 271.522 45.7193 271.19 45.91C271.22 46.0247 271.22 46.1453 271.19 46.26C271.177 46.3177 271.153 46.3723 271.118 46.4204C271.084 46.4685 271.04 46.5092 270.99 46.54C270.938 46.5111 270.893 46.471 270.858 46.4226C270.824 46.3742 270.8 46.3186 270.79 46.26C270.77 46.1399 270.791 46.0166 270.85 45.91C270.883 45.8026 270.926 45.6988 270.98 45.6C271.073 45.4525 271.128 45.2841 271.14 45.11C271.14 45 271.14 44.88 271.14 44.77C271.034 44.7014 270.934 44.6245 270.84 44.54C270.658 44.3568 270.435 44.2197 270.19 44.14C270.071 44.096 269.963 44.028 269.872 43.9403C269.781 43.8525 269.709 43.7469 269.66 43.63C269.51 43.34 269.43 43.33 269.24 43.48C269.026 43.6229 268.867 43.8346 268.79 44.08L268.72 44.26C268.683 44.3822 268.608 44.4893 268.505 44.565C268.402 44.6407 268.278 44.6811 268.15 44.68C268.024 44.69 267.896 44.69 267.77 44.68C267.677 44.6732 267.586 44.6442 267.506 44.5955C267.426 44.5468 267.359 44.4798 267.31 44.4C266.805 44.2818 266.283 44.2581 265.77 44.33C265.726 44.4129 265.664 44.4842 265.587 44.5381C265.511 44.592 265.423 44.6269 265.33 44.64C265.236 44.6578 265.138 44.6462 265.05 44.6069C264.963 44.5676 264.889 44.5023 264.84 44.42C264.678 44.0072 264.437 43.6302 264.13 43.31C263.955 43.1257 263.825 42.9032 263.75 42.66C263.711 42.5389 263.641 42.4297 263.549 42.3423C263.456 42.255 263.343 42.1923 263.22 42.16C263.036 42.1122 262.865 42.0233 262.72 41.9C262.547 41.715 262.356 41.5475 262.15 41.4C262.045 41.3246 261.922 41.2792 261.793 41.2686C261.665 41.258 261.536 41.2827 261.42 41.34C261.252 41.4268 261.092 41.5271 260.94 41.64C260.626 41.7039 260.33 41.8334 260.07 42.02C259.956 42.0738 259.83 42.0975 259.703 42.0887C259.577 42.08 259.456 42.0391 259.35 41.97C259.16 41.8 258.96 41.65 258.78 41.47C258.509 41.3045 258.221 41.1703 257.92 41.07C257.862 41.0415 257.811 41.0006 257.77 40.95C257.649 40.8445 257.507 40.7666 257.354 40.7217C257.2 40.6767 257.038 40.6659 256.88 40.69C256.691 40.6954 256.507 40.7543 256.35 40.86C256.24 40.93 256.15 41.02 256.04 41.09C255.957 41.1346 255.864 41.158 255.77 41.158C255.676 41.158 255.583 41.1346 255.5 41.09L255.17 40.89C255.052 40.7804 254.896 40.7194 254.735 40.7194C254.574 40.7194 254.418 40.7804 254.3 40.89C254.109 41.0586 253.865 41.1542 253.61 41.16C253.04 41.16 252.47 41.16 251.89 41.16C251.699 41.148 251.514 41.0897 251.35 40.99C251.3 40.99 251.26 40.91 251.2 40.87C251.045 40.7591 250.873 40.6747 250.69 40.62C250.513 40.555 250.35 40.4566 250.21 40.33C250.02 40.16 249.83 39.99 249.62 39.83C249.41 39.67 249.02 39.65 248.77 39.43C248.569 39.2726 248.325 39.1787 248.07 39.16H247.88C247.686 39.1559 247.499 39.0853 247.35 38.96C247.099 38.7652 246.797 38.6472 246.48 38.62H246.29L245.69 38.69C245.69 38.82 245.69 38.95 245.69 39.07C245.695 39.1366 245.695 39.2034 245.69 39.27C245.659 39.3583 245.61 39.4393 245.546 39.5081C245.483 39.5768 245.406 39.6319 245.32 39.67C244.622 39.7425 243.918 39.7425 243.22 39.67C243.027 39.6508 242.844 39.5702 242.7 39.44C242.553 39.3151 242.372 39.2383 242.18 39.22L241.8 39.16C241.61 39.141 241.43 39.0682 241.28 38.95C241.15 38.81 241 38.69 240.86 38.56C240.687 38.3717 240.46 38.2422 240.21 38.19C240.021 38.1502 239.847 38.0565 239.71 37.92C239.57 37.79 239.43 37.65 239.3 37.51C239.172 37.369 239.01 37.2624 238.83 37.2C238.706 37.1672 238.586 37.1237 238.47 37.07C238.3 36.99 238.15 36.87 237.98 36.78C237.81 36.69 237.61 36.69 237.45 36.58C237.19 36.394 236.898 36.2552 236.59 36.17C236.533 36.146 236.48 36.1158 236.43 36.08C236.189 35.8697 235.906 35.7129 235.6 35.62C235.479 35.5796 235.365 35.5224 235.26 35.45C234.999 35.261 234.681 35.1691 234.36 35.19H231.87C231.743 35.1968 231.616 35.1728 231.5 35.12C231.234 34.9496 230.949 34.8119 230.65 34.71L230.48 34.63C230.421 34.6017 230.367 34.5646 230.32 34.52C230.13 34.35 229.94 34.18 229.76 34C229.631 33.8548 229.453 33.7623 229.26 33.74C228.814 33.7372 228.38 33.5938 228.02 33.33C227.712 33.2485 227.421 33.113 227.16 32.93C226.996 32.8289 226.812 32.7673 226.62 32.75C226.364 32.7448 226.112 32.6869 225.88 32.58C225.771 32.5158 225.647 32.482 225.52 32.482C225.393 32.482 225.269 32.5158 225.16 32.58C224.993 32.6781 224.804 32.7331 224.61 32.74C224.037 32.78 223.463 32.78 222.89 32.74C222.699 32.7287 222.515 32.6628 222.36 32.55C222.108 32.3539 221.799 32.245 221.48 32.24H219.56C219.24 32.2427 218.926 32.1486 218.66 31.97C218.552 31.9009 218.429 31.8601 218.301 31.8514C218.174 31.8426 218.046 31.8662 217.93 31.92C217.872 31.9401 217.817 31.9706 217.77 32.01C217.716 32.0449 217.654 32.0634 217.59 32.0634C217.526 32.0634 217.464 32.0449 217.41 32.01C217.237 31.9275 217.056 31.8638 216.87 31.82C216.687 31.7674 216.494 31.758 216.306 31.7928C216.119 31.8275 215.942 31.9053 215.79 32.02C215.642 32.1422 215.485 32.2526 215.32 32.35C215.14 32.47 214.91 32.46 214.83 32.3C214.58 31.79 214.53 31.8 213.93 31.78C213.48 31.78 213.03 31.78 212.59 31.78H211.05C210.795 31.7896 210.543 31.7197 210.33 31.58C210.061 31.4053 209.75 31.3052 209.43 31.29C209.177 31.2694 208.939 31.1595 208.76 30.98C208.62 30.85 208.47 30.73 208.33 30.59C208.201 30.4495 208.034 30.3489 207.85 30.3C207.604 30.227 207.371 30.1156 207.16 29.97C206.998 29.8696 206.811 29.8175 206.62 29.82C206.363 29.8181 206.109 29.8656 205.87 29.96C205.53 30.09 205.37 29.96 205.3 29.68L205.18 29.13C205.154 29.0357 205.098 28.9525 205.02 28.893C204.943 28.8334 204.848 28.8008 204.75 28.8H204.56C204.402 28.7775 204.242 28.8086 204.104 28.8884C203.966 28.9682 203.859 29.092 203.8 29.24C203.746 29.3564 203.686 29.4699 203.62 29.58C203.58 29.6266 203.53 29.664 203.474 29.6896C203.418 29.7152 203.357 29.7284 203.295 29.7284C203.233 29.7284 203.172 29.7152 203.116 29.6896C203.06 29.664 203.01 29.6266 202.97 29.58C202.91 29.47 202.85 29.35 202.8 29.24C202.75 29.13 202.59 28.87 202.44 28.83C202.133 28.775 201.837 28.6738 201.56 28.53C201.452 28.464 201.326 28.4325 201.2 28.44C201.009 28.4135 200.815 28.4265 200.629 28.4781C200.443 28.5297 200.27 28.6188 200.12 28.74C200.012 28.8063 199.887 28.8414 199.76 28.8414C199.633 28.8414 199.508 28.8063 199.4 28.74L199.24 28.65C199.024 28.5085 198.768 28.4417 198.51 28.46C198.255 28.4512 198.005 28.5287 197.8 28.68C197.646 28.7947 197.468 28.8733 197.28 28.91C197.027 28.9603 196.801 29.0984 196.64 29.3L196.36 29.57C196.33 29.6043 196.291 29.6306 196.249 29.6467C196.206 29.6627 196.159 29.668 196.114 29.6621C196.069 29.6562 196.025 29.6392 195.988 29.6127C195.951 29.5862 195.921 29.5509 195.9 29.51L195.7 29.18C195.624 29.0765 195.514 29.0024 195.39 28.97C195.081 28.883 194.752 28.9078 194.46 29.04C194.358 29.1163 194.239 29.1663 194.114 29.1855C193.988 29.2047 193.86 29.1925 193.74 29.15C193.654 29.1131 193.559 29.1038 193.467 29.1236C193.376 29.1433 193.293 29.1909 193.23 29.26C193.04 29.43 192.86 29.62 192.67 29.77C192.566 29.8479 192.44 29.89 192.31 29.89C192.18 29.89 192.054 29.8479 191.95 29.77L191.79 29.66C191.746 29.6172 191.699 29.5771 191.65 29.54C191.546 29.4673 191.422 29.4283 191.295 29.4283C191.168 29.4283 191.044 29.4673 190.94 29.54C190.645 29.7905 190.266 29.9192 189.88 29.9C189.56 29.9 189.24 29.9 188.88 29.9C188.817 29.8907 188.753 29.8907 188.69 29.9C188.598 29.9191 188.512 29.9612 188.44 30.0224C188.368 30.0836 188.313 30.1619 188.28 30.25C188.261 30.3116 188.238 30.3718 188.21 30.43C188.171 30.4994 188.119 30.5598 188.055 30.6072C187.991 30.6546 187.918 30.6879 187.841 30.7049C187.763 30.7219 187.683 30.7223 187.605 30.7059C187.527 30.6896 187.454 30.6569 187.39 30.61L186.64 30.02C186.591 29.9766 186.533 29.9457 186.47 29.93C186.35 29.93 186.22 29.93 186.09 29.93L185.59 30.2C185.37 30.32 185.1 30.34 184.88 30.48C184.88 30.48 184.79 30.56 184.73 30.59C184.566 30.6898 184.381 30.7513 184.19 30.77H183.24C182.92 30.77 182.6 30.77 182.24 30.77C182.048 30.7853 181.868 30.8666 181.73 31C181.545 31.1787 181.297 31.279 181.04 31.28H180.46C180.203 31.2978 179.948 31.2154 179.75 31.05C179.56 30.9 179.39 30.99 179.24 31.1C179.09 31.21 178.84 31.41 178.64 31.57C178.546 31.6579 178.427 31.7139 178.3 31.7301C178.172 31.7462 178.043 31.7217 177.93 31.66C177.796 31.5723 177.64 31.5255 177.48 31.5255C177.32 31.5255 177.164 31.5723 177.03 31.66C176.916 31.7109 176.794 31.7414 176.67 31.75C176.54 31.75 176.41 31.75 176.29 31.75H175.9C175.645 31.7591 175.398 31.8426 175.19 31.99C175.145 32.033 175.095 32.07 175.04 32.1C174.861 32.1593 174.687 32.2329 174.52 32.32C174.382 32.4533 174.267 32.6088 174.18 32.78C174.04 32.98 173.92 33.03 173.7 32.93C173.474 32.8121 173.225 32.7472 172.97 32.74C172.716 32.7204 172.468 32.6525 172.24 32.54C171.93 32.41 171.87 32.45 171.71 32.84C171.688 32.9018 171.661 32.9619 171.63 33.02C171.569 33.0906 171.491 33.1442 171.404 33.1758C171.316 33.2073 171.222 33.2156 171.13 33.2L170.77 33.07C170.659 33.0034 170.529 32.9753 170.4 32.99C170.163 33.082 169.97 33.2608 169.86 33.49C169.836 33.5484 169.815 33.6086 169.8 33.67C169.8 33.86 169.8 34.05 169.73 34.24C169.706 34.3644 169.643 34.4776 169.549 34.5624C169.455 34.6473 169.336 34.6991 169.21 34.71L168.26 34.78C168.137 34.8109 168.017 34.851 167.9 34.9C167.55 35.21 167.06 35.2 166.69 35.45C166.64 35.4877 166.582 35.5118 166.52 35.52C166.457 35.5055 166.396 35.4819 166.34 35.45C166.059 35.3009 165.748 35.2187 165.43 35.21C165.173 35.205 164.924 35.1173 164.72 34.96C164.643 34.9038 164.555 34.8642 164.463 34.8435C164.37 34.8229 164.273 34.8217 164.18 34.84C164.088 34.853 164.001 34.8933 163.932 34.9556C163.862 35.0179 163.813 35.0995 163.79 35.19C163.74 35.44 163.7 35.7 163.64 35.94C163.624 36.0032 163.59 36.0603 163.542 36.1047C163.494 36.149 163.434 36.1786 163.37 36.19C163.063 36.2802 162.733 36.2589 162.44 36.13L162.1 35.97C161.97 35.92 161.95 35.97 161.72 36.32C161.59 36.53 161.59 36.53 161.26 36.47C161.169 36.4446 161.071 36.4554 160.987 36.5001C160.903 36.5447 160.84 36.6199 160.81 36.71C160.81 36.9 160.74 37.09 160.71 37.28C160.694 37.358 160.661 37.4313 160.612 37.4939C160.563 37.5566 160.5 37.607 160.428 37.641C160.356 37.675 160.277 37.6917 160.198 37.6898C160.118 37.6879 160.04 37.6674 159.97 37.63C159.91 37.63 159.86 37.55 159.81 37.53C159.772 37.5021 159.729 37.4832 159.682 37.4747C159.636 37.4661 159.589 37.4682 159.543 37.4807C159.498 37.4933 159.456 37.5159 159.421 37.547C159.386 37.578 159.358 37.6167 159.34 37.66L159.14 37.99C159.082 38.065 159.005 38.1231 158.917 38.1582C158.829 38.1934 158.734 38.2044 158.64 38.19C158.515 38.1689 158.395 38.1211 158.29 38.05C158.15 37.96 158.04 37.98 157.97 38.05C157.913 38.1275 157.889 38.224 157.902 38.3192C157.915 38.4143 157.964 38.5007 158.04 38.56C158.152 38.6159 158.253 38.6903 158.34 38.78C158.43 38.87 158.4 38.99 158.25 39.06C158.01 39.149 157.755 39.1898 157.5 39.18C157.243 39.1843 156.992 39.2643 156.78 39.41C156.701 39.4634 156.606 39.4877 156.511 39.4785C156.416 39.4694 156.327 39.4275 156.26 39.36C156.064 39.1988 155.857 39.0518 155.64 38.92C155.586 38.8874 155.523 38.8702 155.46 38.8702C155.397 38.8702 155.334 38.8874 155.28 38.92C155.09 39.08 154.9 39.26 154.72 39.44C154.574 39.5639 154.391 39.6344 154.2 39.64H153.62H152.86C152.732 39.6344 152.605 39.6716 152.5 39.7458C152.395 39.82 152.318 39.927 152.28 40.05C152.193 40.3606 152.002 40.6321 151.74 40.82C151.686 40.8498 151.626 40.8654 151.565 40.8654C151.504 40.8654 151.444 40.8498 151.39 40.82L151.04 40.66C150.954 40.6177 150.86 40.5957 150.765 40.5957C150.67 40.5957 150.575 40.6177 150.49 40.66C150.37 40.66 150.27 40.8 150.16 40.84C150.05 40.88 149.79 40.84 149.6 40.84C149.538 40.8214 149.472 40.8214 149.41 40.84C149.265 40.9023 149.134 40.994 149.025 41.1093C148.917 41.2246 148.833 41.361 148.78 41.51C148.747 41.562 148.723 41.6196 148.71 41.68C148.681 41.7716 148.624 41.8517 148.546 41.9091C148.469 41.9665 148.376 41.9983 148.28 42C147.96 42 147.64 42 147.28 42.07C147.089 42.0792 146.908 42.1573 146.77 42.29C146.678 42.3799 146.569 42.4513 146.45 42.5C146.149 42.6044 145.855 42.728 145.57 42.87C145.511 42.8852 145.449 42.8852 145.39 42.87C144.97 42.77 144.96 42.76 144.69 42.87C144.53 42.9628 144.344 42.9975 144.161 42.9684C143.979 42.9392 143.813 42.8479 143.69 42.71C143 42.77 142.3 42.71 141.62 42.8C141.526 42.8077 141.435 42.8405 141.358 42.895C141.28 42.9495 141.219 43.0237 141.18 43.11L141.03 43.46C141.095 43.641 141.095 43.839 141.03 44.02C140.908 44.2432 140.83 44.4876 140.8 44.74C140.786 44.865 140.763 44.9887 140.73 45.11C140.681 45.2263 140.59 45.3198 140.475 45.3717C140.36 45.4236 140.23 45.4302 140.11 45.39C140.053 45.3677 139.999 45.3374 139.95 45.3C139.689 45.1168 139.379 45.0158 139.06 45.01C138.803 45.004 138.553 44.9242 138.34 44.78C138.133 44.6327 137.884 44.5556 137.63 44.56C137.37 44.56 137.12 44.56 136.87 44.56C136.743 44.5814 136.618 44.6183 136.5 44.67C136.194 44.8979 135.822 45.0207 135.44 45.02C135.248 45.0213 135.063 45.0924 134.92 45.22C134.687 45.44 134.447 45.65 134.2 45.85C134.104 45.9298 133.991 45.9877 133.87 46.02C133.686 46.0671 133.513 46.1485 133.36 46.26L133.2 46.36C133.133 46.4026 133.058 46.4311 132.98 46.4436C132.901 46.4561 132.821 46.4524 132.744 46.4327C132.668 46.413 132.596 46.3778 132.533 46.3291C132.47 46.2805 132.418 46.2195 132.38 46.15L132.23 45.8C132.186 45.7158 132.12 45.6452 132.039 45.5958C131.958 45.5465 131.865 45.5202 131.77 45.52C131.391 45.4851 131.009 45.4851 130.63 45.52C130.375 45.5232 130.126 45.5958 129.91 45.73C129.827 45.7746 129.734 45.798 129.64 45.798C129.546 45.798 129.453 45.7746 129.37 45.73C129.25 45.73 129.14 45.62 129.02 45.58C128.776 45.5137 128.548 45.398 128.35 45.24C128.16 45.07 127.96 44.91 127.76 44.76C127.606 44.6476 127.421 44.5848 127.23 44.58C126.97 44.58 126.72 44.58 126.46 44.58C126.269 44.5752 126.084 44.5124 125.93 44.4C125.733 44.2416 125.51 44.1197 125.27 44.04C125.092 43.9652 124.924 43.8678 124.77 43.75C124.607 43.6488 124.421 43.5904 124.23 43.58H123.09H122.9C122.773 43.5875 122.652 43.6381 122.557 43.7236C122.463 43.809 122.4 43.9242 122.38 44.05L122.32 44.62C122.32 44.78 122.24 44.85 122 45.06L121.88 45.75C121.882 45.8601 121.851 45.9683 121.79 46.06C121.637 46.2895 121.412 46.4618 121.15 46.55C121.051 46.6257 120.947 46.6958 120.84 46.76C120.65 46.88 120.47 46.84 120.4 46.65C120.376 46.5286 120.329 46.413 120.26 46.31C120.041 45.9242 119.749 45.5846 119.4 45.31C119.294 45.2378 119.211 45.1373 119.16 45.02C119.16 45.02 119.05 45.09 119.01 45.13C118.823 45.304 118.596 45.4308 118.35 45.5C118.113 45.5923 117.893 45.7242 117.7 45.89C117.595 45.9679 117.47 46.0132 117.34 46.02C117.02 46.02 116.7 46.02 116.34 46.08C116.214 46.0953 116.093 46.1325 115.98 46.19C115.763 46.3251 115.54 46.4486 115.31 46.56C115.08 46.65 115.06 46.71 115.15 46.99C115.217 47.1704 115.261 47.3586 115.28 47.55C115.269 47.6423 115.232 47.7295 115.173 47.8019C115.115 47.8744 115.038 47.9291 114.95 47.96C114.735 48.0231 114.507 48.0324 114.288 47.9871C114.068 47.9418 113.863 47.8432 113.69 47.7C113.582 47.6294 113.458 47.588 113.33 47.58C113.02 47.58 112.7 47.58 112.38 47.5C112.19 47.4781 112.012 47.3978 111.87 47.27C111.675 47.1029 111.427 47.0107 111.17 47.01C110.404 46.97 109.636 46.97 108.87 47.01C108.741 47.0228 108.617 47.0674 108.51 47.14L108.36 47.25C108.157 47.406 107.915 47.5029 107.66 47.53C107.34 47.5289 107.029 47.6384 106.78 47.84C106.675 47.9155 106.556 47.9698 106.43 48C106.118 48.0694 105.835 48.2336 105.62 48.47C105.35 48.75 105.09 49.02 104.81 49.28C104.714 49.3675 104.602 49.4354 104.48 49.48C104.236 49.5499 104.004 49.6543 103.79 49.79C103.637 49.906 103.452 49.9723 103.26 49.98C103.07 49.98 102.88 50.03 102.69 50.05C102.567 50.0759 102.453 50.1347 102.36 50.22C102.158 50.3799 101.908 50.4679 101.65 50.47H99.54C99.2834 50.4807 99.0374 50.5756 98.84 50.74C98.6914 50.8618 98.5109 50.9381 98.32 50.96C98 50.96 97.68 50.96 97.32 50.96H94.06C93.8039 50.9527 93.552 51.0261 93.34 51.17C93.177 51.2706 92.9976 51.3417 92.81 51.38H92.43C92.2406 51.3924 92.0578 51.4545 91.9 51.56C91.6299 51.7377 91.3133 51.8317 90.99 51.83C89.99 51.83 88.99 51.83 87.93 51.83C87.6732 51.8211 87.4297 51.7136 87.25 51.53C87.16 51.44 87.05 51.37 86.96 51.28C86.7739 51.104 86.5472 50.9769 86.3 50.91C86.1766 50.8815 86.0607 50.8269 85.96 50.75L85.8 50.64C85.6643 50.5029 85.4826 50.421 85.29 50.41C84.91 50.41 84.52 50.41 84.14 50.36C83.82 50.3607 83.5081 50.2591 83.25 50.07C83.0901 49.9625 82.9026 49.9035 82.71 49.9H80.8H79.07C78.8145 49.8964 78.5649 49.9772 78.36 50.13C78.0338 50.3384 77.64 50.4136 77.26 50.34L77.08 50.29C77.0218 50.2624 76.9616 50.239 76.9 50.22C76.8424 50.1966 76.7803 50.1866 76.7184 50.1907C76.6564 50.1949 76.5961 50.213 76.5422 50.2438C76.4883 50.2747 76.442 50.3173 76.407 50.3686C76.372 50.4199 76.3491 50.4785 76.34 50.54C76.3398 50.73 76.2986 50.9177 76.2192 51.0902C76.1398 51.2628 76.0241 51.4162 75.88 51.54C75.8083 51.5993 75.7181 51.6318 75.625 51.6318C75.5319 51.6318 75.4417 51.5993 75.37 51.54C75.0989 51.3701 74.8942 51.1125 74.79 50.81C74.7532 50.688 74.6797 50.5803 74.5795 50.5016C74.4793 50.4228 74.3572 50.3769 74.23 50.37C73.8577 50.3515 73.5038 50.2029 73.23 49.95C73.09 49.82 72.92 49.73 72.77 49.61C72.7476 49.5861 72.7204 49.567 72.6903 49.554C72.6602 49.541 72.6278 49.5342 72.595 49.5342C72.5622 49.5342 72.5297 49.541 72.4996 49.554C72.4696 49.567 72.4424 49.5861 72.42 49.61C72.3206 49.6889 72.2042 49.7437 72.08 49.77C71.9872 49.7954 71.8901 49.8004 71.7952 49.7849C71.7003 49.7694 71.6098 49.7336 71.53 49.68C71.1227 49.3905 70.7503 49.0549 70.42 48.68C70.2334 48.5019 69.9878 48.3986 69.73 48.39C69.48 48.39 69.22 48.39 68.97 48.39C68.7763 48.3828 68.5902 48.3126 68.44 48.19C68.2898 48.0711 68.1329 47.9609 67.97 47.86C67.64 47.64 67.59 47.64 67.41 47.99C67.3614 48.1089 67.2777 48.2101 67.17 48.28C66.9995 48.3661 66.8111 48.411 66.62 48.411C66.4289 48.411 66.2405 48.3661 66.07 48.28C65.798 48.1199 65.5097 47.9891 65.21 47.89C65.0899 47.8485 64.9729 47.7984 64.86 47.74C64.7817 47.6923 64.6917 47.6671 64.6 47.6671C64.5083 47.6671 64.4183 47.6923 64.34 47.74C64.1114 47.8566 63.8564 47.9117 63.6 47.9C63.41 47.902 63.2219 47.861 63.05 47.78C62.9929 47.7491 62.9393 47.7123 62.89 47.67C62.6823 47.5215 62.4352 47.438 62.18 47.43C61.8577 47.4143 61.5491 47.295 61.3 47.09C61.1491 46.9754 60.9688 46.9061 60.78 46.89C60.5874 46.8796 60.3964 46.8494 60.21 46.8C59.91 46.7 59.68 46.44 59.35 46.39C59.2245 46.3742 59.1063 46.322 59.01 46.24C58.811 46.0754 58.5671 45.9744 58.31 45.95C58.1835 45.9591 58.0565 45.9591 57.93 45.95C57.741 45.9289 57.5647 45.8443 57.43 45.71C57.2531 45.5264 57.0661 45.3528 56.87 45.19C56.7787 45.0986 56.6649 45.033 56.54 45C56.2916 44.9474 56.0588 44.8379 55.86 44.68C55.7637 44.5943 55.6464 44.5356 55.52 44.51C55.2688 44.4513 55.0376 44.3271 54.85 44.15C54.72 44.02 54.57 43.89 54.44 43.75C54.2603 43.5664 54.0168 43.4589 53.76 43.45H53.57C53.3157 43.4425 53.0719 43.3471 52.88 43.18L52.29 42.69C52.1985 42.6006 52.0777 42.5473 51.95 42.54L50.95 42.47C50.7589 42.4531 50.5792 42.372 50.44 42.24L49.44 41.33C49.3515 41.2414 49.268 41.148 49.19 41.05C49.0627 40.9086 48.9672 40.7415 48.91 40.56C48.78 40.24 48.63 40.23 48.36 40.5C48.09 40.77 47.98 40.8 47.74 40.58L47.33 40.18C47.1817 40.0565 46.9929 39.9924 46.8 40C46.6116 39.9652 46.4184 39.9652 46.23 40C46.1448 40.0381 46.0722 40.0997 46.0208 40.1777C45.9694 40.2556 45.9414 40.3467 45.94 40.44C45.9521 40.6314 46.0258 40.8138 46.15 40.96C46.42 41.32 46.81 41.56 47.08 41.96C47.1173 42.0061 47.1415 42.0613 47.15 42.12C47.1649 42.1825 47.1649 42.2475 47.15 42.31C47.1 42.63 46.57 42.97 46.27 42.63C46.19 42.53 46.08 42.46 46 42.36C45.8436 42.1567 45.6205 42.015 45.37 41.96C45.1812 41.9223 45.0054 41.8361 44.86 41.71C44.67 41.54 44.49 41.36 44.29 41.2C44.1926 41.115 44.0692 41.0656 43.94 41.06C43.8138 41.0448 43.6862 41.0448 43.56 41.06C43.4102 41.0556 43.2627 41.0973 43.1375 41.1796C43.0122 41.2619 42.9154 41.3808 42.86 41.52H42.49C42.2966 41.5114 42.1109 41.4414 41.96 41.32C41.71 41.12 41.48 40.9 41.24 40.69C41.1889 40.6504 41.1314 40.62 41.07 40.6C40.7715 40.4804 40.4385 40.4804 40.14 40.6C40.0243 40.651 39.9165 40.7184 39.82 40.8C39.6663 40.9164 39.4822 40.9858 39.29 41C39.04 41 38.78 41 38.53 41H37.76C37.4402 41.0104 37.1263 40.9116 36.87 40.72C36.6595 40.5696 36.4086 40.486 36.15 40.48H35.58C35.3214 40.4819 35.0703 40.3935 34.87 40.23C34.6522 40.0974 34.4046 40.0218 34.15 40.01H33.58C33.3221 40.0088 33.0708 39.9285 32.86 39.78C32.7091 39.6654 32.5288 39.5961 32.34 39.58H31.95H31.57C31.4439 39.5882 31.3186 39.5557 31.2124 39.4873C31.1061 39.4189 31.0247 39.3182 30.98 39.2C30.8892 38.8928 30.7164 38.6162 30.48 38.4C30.23 38.19 30 37.98 29.75 37.78C29.6491 37.7008 29.5277 37.6522 29.4 37.64H28.63C28.3754 37.6206 28.1305 37.5344 27.92 37.39C27.7295 37.2207 27.4848 37.1249 27.23 37.12H26.23C25.9102 37.1296 25.5954 37.0386 25.33 36.86C25.1161 36.7202 24.8655 36.6471 24.61 36.65H24.42C24.23 36.6 24.05 36.54 23.98 36.34C23.8503 35.9772 23.63 35.6537 23.34 35.4L22.91 35.03C22.8793 34.9962 22.8405 34.9708 22.7973 34.956C22.7541 34.9413 22.7079 34.9377 22.6629 34.9457C22.618 34.9537 22.5758 34.973 22.5403 35.0017C22.5048 35.0304 22.4772 35.0677 22.46 35.11C22.3982 35.2186 22.328 35.3223 22.25 35.42C22.1667 35.5171 22.0516 35.5815 21.9252 35.6016C21.7988 35.6218 21.6694 35.5964 21.56 35.53C21.5337 35.3747 21.4616 35.2307 21.3529 35.1167C21.2442 35.0026 21.1039 34.9237 20.95 34.89C20.826 34.8579 20.7101 34.8 20.61 34.72C20.4117 34.5582 20.1843 34.436 19.94 34.36C19.7133 34.2453 19.493 34.1184 19.28 33.98C19.11 33.9 18.92 33.85 18.75 33.78C18.58 33.71 18.41 33.59 18.25 33.5C18.1348 33.4441 18.008 33.4167 17.88 33.42C17.5589 33.428 17.2436 33.3334 16.98 33.15C16.7701 32.9997 16.5182 32.9192 16.26 32.92L15.11 32.87C14.919 32.8644 14.7355 32.7939 14.59 32.67C14.3945 32.4996 14.1487 32.3978 13.89 32.38H13.13C12.938 32.3728 12.7515 32.3141 12.59 32.21C12.3232 32.0343 12.0094 31.9437 11.69 31.95H10.16C9.9668 31.9502 9.77825 31.8908 9.62 31.78C9.35492 31.5984 9.0413 31.5008 8.72 31.5C8.34059 31.47 7.9594 31.47 7.58 31.5C7.45263 31.5214 7.32837 31.5584 7.21 31.61C7.1 31.66 6.99 31.74 6.88 31.8L5.82 32.2C5.75675 32.2048 5.69324 32.2048 5.63 32.2C5.34105 32.0661 5.02826 31.9913 4.71 31.98C4.52029 31.995 4.3297 31.995 4.14 31.98C3.94738 31.9765 3.75986 31.9175 3.6 31.81C3.3439 31.6169 3.03068 31.5149 2.71 31.52C2.58 31.52 2.45 31.52 2.33 31.52C2.00611 31.5217 1.69291 31.4042 1.45 31.19C1.29911 31.0754 1.11878 31.0061 0.929996 30.99C0.609543 30.9901 0.290356 30.9498 -0.0200043 30.87V77.53H499.56ZM422.67 5.16C422.722 5.18834 422.766 5.23024 422.796 5.28128C422.826 5.33232 422.843 5.39061 422.843 5.45C422.843 5.50939 422.826 5.56767 422.796 5.61871C422.766 5.66975 422.722 5.71167 422.67 5.74001C422.62 5.70962 422.579 5.66699 422.551 5.61621C422.522 5.56543 422.507 5.50821 422.507 5.45C422.507 5.39179 422.522 5.33456 422.551 5.28378C422.579 5.23301 422.62 5.19038 422.67 5.16ZM420.62 7.16C420.8 7.08 420.93 7.21999 420.92 7.45999C420.91 7.69999 420.74 7.82 420.58 7.72C420.525 7.69424 420.48 7.65058 420.453 7.59612C420.426 7.54166 420.417 7.47959 420.43 7.42C420.426 7.35764 420.443 7.29574 420.477 7.24349C420.511 7.19123 420.561 7.15143 420.62 7.13001V7.16ZM331.69 29.62C331.69 29.62 331.77 29.55 331.81 29.51C331.836 29.519 331.861 29.5331 331.882 29.5516C331.903 29.5701 331.92 29.5926 331.932 29.6177C331.944 29.6429 331.951 29.6702 331.952 29.698C331.954 29.7259 331.949 29.7538 331.94 29.78L331.82 29.89C331.787 29.8859 331.756 29.8733 331.73 29.8535C331.703 29.8337 331.683 29.8073 331.669 29.777C331.656 29.7468 331.651 29.7136 331.655 29.6808C331.659 29.648 331.671 29.6167 331.69 29.59V29.62ZM330.05 31.33C330.063 31.2722 330.09 31.2184 330.128 31.1732C330.167 31.1279 330.215 31.0925 330.27 31.07C330.365 31.0636 330.46 31.0835 330.545 31.1276C330.63 31.1717 330.701 31.2383 330.75 31.32C330.82 31.3822 330.869 31.4652 330.889 31.5569C330.909 31.6487 330.898 31.7444 330.86 31.83C330.822 31.8803 330.769 31.9185 330.71 31.94C330.647 31.9504 330.583 31.9504 330.52 31.94C330.442 31.9429 330.364 31.9265 330.293 31.8925C330.223 31.8584 330.162 31.8075 330.116 31.7444C330.069 31.6813 330.039 31.6078 330.028 31.5304C330.016 31.4529 330.024 31.3738 330.05 31.3V31.33ZM199.84 29.62C199.84 29.62 199.93 29.55 199.97 29.52C199.996 29.5309 200.019 29.5468 200.039 29.5669C200.058 29.5869 200.074 29.6107 200.084 29.6368C200.094 29.6629 200.099 29.6908 200.099 29.7188C200.098 29.7468 200.092 29.7744 200.08 29.8L199.94 29.89C199.91 29.8818 199.882 29.8662 199.859 29.8447C199.837 29.8232 199.82 29.7965 199.81 29.7668C199.8 29.7371 199.797 29.7054 199.803 29.6746C199.808 29.6437 199.821 29.6147 199.84 29.59V29.62ZM163.56 36.94C163.637 36.9027 163.724 36.8903 163.808 36.9047C163.892 36.919 163.97 36.9593 164.03 37.02C164.056 37.0604 164.076 37.1041 164.09 37.15C164.09 37.29 163.84 37.37 163.64 37.31C163.44 37.25 163.44 37.18 163.46 37.08C163.465 37.0507 163.477 37.0229 163.494 36.9987C163.511 36.9745 163.534 36.9544 163.56 36.94ZM42.97 41.94C42.9878 41.9206 43.0094 41.9051 43.0335 41.8945C43.0576 41.8839 43.0837 41.8784 43.11 41.8784C43.1363 41.8784 43.1624 41.8839 43.1865 41.8945C43.2106 41.9051 43.2322 41.9206 43.25 41.94C43.37 42.04 43.37 42.14 43.25 42.22C43.1986 42.2401 43.1414 42.2401 43.09 42.22C43.0421 42.1962 43.005 42.155 42.9864 42.1048C42.9679 42.0546 42.9691 41.9993 42.99 41.95L42.97 41.94Z" fill="white"/>
</svg>
